<svg width="51" height="58" viewBox="0 0 51 58" fill="none" xmlns="http://www.w3.org/2000/svg">
<path d="M11.1225 46.2156L10.8951 49.3921L13.1691 39.7681C13.1691 39.7681 17.0919 38.4634 25.904 38.4634C35.1329 38.4634 38.0703 39.7681 38.0703 39.7681L40.4012 49.5245L40.1738 46.2345L49.4975 48.0497L50.6724 51.9636H50.862V0.1373H32.8399L32.8588 16.5115L18.0963 16.4926L18.0774 0.118393H0.131104L0.169004 51.9258H0.339562L1.32499 47.993L11.1225 46.2156ZM47.6593 46.5182L49.3648 47.6337L40.1738 45.3081L40.0411 44.1169L47.6593 46.5182ZM25.506 22.2594C25.506 22.2594 25.525 22.2594 25.506 22.2594L25.6197 21.0115L25.7145 22.2405H25.7334L26.5293 23.791C26.5293 23.791 26.1882 23.6586 25.6197 23.6586C24.9943 23.6586 24.6911 23.791 24.6911 23.791L25.506 22.2594ZM24.3879 24.1313C24.3879 24.1313 24.6343 23.791 25.6197 23.791C26.6051 23.791 26.8515 24.1313 26.8515 24.1313L27.0789 24.5284C27.0789 24.5284 26.662 24.0935 25.6197 24.0935C24.5774 24.0935 24.1416 24.5284 24.1416 24.5284L24.3879 24.1313ZM26.7757 25.7574C26.7757 25.7574 26.4346 25.5683 25.6197 25.5683C24.8048 25.5683 24.4827 25.7574 24.4827 25.7574L24.6532 24.6418C24.6532 24.6418 24.748 24.3015 25.6197 24.3015C26.5672 24.3015 26.6051 24.6418 26.6051 24.6418L26.7757 25.7574ZM23.7625 26.249C23.7625 26.249 24.1416 25.7574 25.6197 25.7574C27.0979 25.7574 27.4769 26.249 27.4769 26.249L27.8369 26.9297C27.8369 26.9297 27.2116 26.2679 25.6387 26.2679C24.0658 26.2679 23.4214 26.9297 23.4214 26.9297L23.7625 26.249ZM24.2932 26.7406C25.1649 26.3813 26.1693 26.4002 27.041 26.7595L35.7962 36.3836C35.7962 36.3836 32.9915 35.5327 25.5629 35.5327C17.5846 35.5327 15.5001 36.3836 15.5001 36.3836L24.2932 26.7406ZM13.8703 37.1777C13.8703 37.1777 16.2581 35.8731 25.6197 35.8731C34.9813 35.8731 37.388 37.1777 37.388 37.1777L39.6242 39.7681C39.6242 39.7681 39.5674 39.7492 39.4537 39.6924L39.5674 39.7681L38.6388 40.6945L38.3545 39.3521C36.5163 38.8227 32.5177 38.0096 25.6766 38.0096C18.7406 38.0096 14.6852 38.8605 12.847 39.371L12.5817 40.6945L11.6531 39.7681L13.8703 37.1777ZM3.25796 46.5182L11.2551 44.1169L11.1225 45.3081L1.4008 47.6337L3.25796 46.5182Z" fill="white"/>
<path d="M26.5293 41.6021H25.127V40.4298C25.127 40.0895 25.3923 39.8248 25.7334 39.8248H25.9039C26.245 39.8248 26.5103 40.0895 26.5103 40.4298V41.6021H26.5293Z" fill="white"/>
<path d="M18.4185 42.4719H17.0161V41.2996C17.0161 40.9593 17.2814 40.6945 17.6225 40.6945H17.7931C18.1342 40.6945 18.3995 40.9593 18.3995 41.2996V42.4719H18.4185Z" fill="white"/>
<path d="M34.5076 42.4719H33.1052V41.2996C33.1052 40.9593 33.3705 40.6945 33.7116 40.6945H33.8822C34.2233 40.6945 34.4886 40.9593 34.4886 41.2996V42.4719H34.5076Z" fill="white"/>
<path d="M22.9666 45.3648H21.5642V44.1925C21.5642 43.8521 21.8295 43.5874 22.1706 43.5874H22.3412C22.6823 43.5874 22.9476 43.8521 22.9476 44.1925V45.3648H22.9666Z" fill="white"/>
<path d="M29.9595 45.3648H28.5571V44.1925C28.5571 43.8521 28.8224 43.5874 29.1635 43.5874H29.3341C29.6752 43.5874 29.9405 43.8521 29.9405 44.1925V45.3648H29.9595Z" fill="white"/>
</svg>
