<svg width="30" height="30" viewBox="0 0 30 30" fill="none" xmlns="http://www.w3.org/2000/svg">
<path d="M27.682 3.93125C27.232 3.54965 26.5252 3.49505 25.7944 3.78845H25.7932C25.0246 4.09685 4.0366 13.0992 3.1822 13.467C3.0268 13.521 1.6696 14.0274 1.8094 15.1554C1.9342 16.1724 3.025 16.5936 3.1582 16.6422L8.494 18.4692C8.848 19.6476 10.153 23.9952 10.4416 24.924C10.6216 25.503 10.915 26.2638 11.4292 26.4204C11.8804 26.5944 12.3292 26.4354 12.6196 26.2074L15.8818 23.1816L21.148 27.2886L21.2734 27.3636C21.631 27.522 21.9736 27.6012 22.3006 27.6012C22.5532 27.6012 22.7956 27.5538 23.0272 27.459C23.8162 27.135 24.1318 26.3832 24.1648 26.298L28.0984 5.85185C28.3384 4.75985 28.0048 4.20425 27.682 3.93125ZM13.1998 19.2L11.3998 24L9.5998 18L23.3998 7.80005L13.1998 19.2Z" fill="black"/>
</svg>
