<svg width="30" height="30" viewBox="0 0 30 30" fill="none" xmlns="http://www.w3.org/2000/svg">
<path d="M9.5998 1.80005C5.2978 1.80005 1.7998 5.29805 1.7998 9.60005V20.4C1.7998 24.702 5.2978 28.2001 9.5998 28.2001H20.3998C24.7018 28.2001 28.1998 24.702 28.1998 20.4V9.60005C28.1998 5.29805 24.7018 1.80005 20.3998 1.80005H9.5998ZM22.1998 6.60005C22.8598 6.60005 23.3998 7.14005 23.3998 7.80005C23.3998 8.46005 22.8598 9.00005 22.1998 9.00005C21.5398 9.00005 20.9998 8.46005 20.9998 7.80005C20.9998 7.14005 21.5398 6.60005 22.1998 6.60005ZM14.9998 8.40005C18.6418 8.40005 21.5998 11.358 21.5998 15C21.5998 18.642 18.6418 21.6 14.9998 21.6C11.3578 21.6 8.39981 18.642 8.39981 15C8.39981 11.358 11.3578 8.40005 14.9998 8.40005ZM14.9998 9.60005C12.0238 9.60005 9.5998 12.024 9.5998 15C9.5998 17.976 12.0238 20.4 14.9998 20.4C17.9758 20.4 20.3998 17.976 20.3998 15C20.3998 12.024 17.9758 9.60005 14.9998 9.60005Z" fill="black"/>
</svg>
