<svg width="21" height="21" viewBox="0 0 21 21" fill="none" xmlns="http://www.w3.org/2000/svg">
<path d="M6.72001 1.25999C3.70861 1.25999 1.26001 3.70859 1.26001 6.71999V14.28C1.26001 17.2914 3.70861 19.74 6.72001 19.74H14.28C17.2914 19.74 19.74 17.2914 19.74 14.28V6.71999C19.74 3.70859 17.2914 1.25999 14.28 1.25999H6.72001ZM15.54 4.61999C16.002 4.61999 16.38 4.99799 16.38 5.45999C16.38 5.92199 16.002 6.29999 15.54 6.29999C15.078 6.29999 14.7 5.92199 14.7 5.45999C14.7 4.99799 15.078 4.61999 15.54 4.61999ZM10.5 5.87999C13.0494 5.87999 15.12 7.95059 15.12 10.5C15.12 13.0494 13.0494 15.12 10.5 15.12C7.95061 15.12 5.88001 13.0494 5.88001 10.5C5.88001 7.95059 7.95061 5.87999 10.5 5.87999ZM10.5 6.71999C8.41681 6.71999 6.72001 8.41679 6.72001 10.5C6.72001 12.5832 8.41681 14.28 10.5 14.28C12.5832 14.28 14.28 12.5832 14.28 10.5C14.28 8.41679 12.5832 6.71999 10.5 6.71999Z" fill="white"/>
</svg>
