<svg width="20" height="20" viewBox="0 0 20 20" fill="none" xmlns="http://www.w3.org/2000/svg">
<path d="M18.4548 2.6208C18.1548 2.3664 17.6836 2.33 17.1964 2.5256H17.1956C16.6832 2.7312 2.69123 8.7328 2.12163 8.978C2.01803 9.014 1.11323 9.3516 1.20643 10.1036C1.28963 10.7816 2.01683 11.0624 2.10563 11.0948L5.66283 12.3128C5.89883 13.0984 6.76883 15.9968 6.96123 16.616C7.08123 17.002 7.27683 17.5092 7.61963 17.6136C7.92043 17.7296 8.21963 17.6236 8.41323 17.4716L10.588 15.4544L14.0988 18.1924L14.1824 18.2424C14.4208 18.348 14.6492 18.4008 14.8672 18.4008C15.0356 18.4008 15.1972 18.3692 15.3516 18.306C15.8776 18.09 16.088 17.5888 16.11 17.532L18.7324 3.9012C18.8924 3.1732 18.67 2.8028 18.4548 2.6208ZM8.80003 12.8L7.60003 16L6.40003 12L15.6 5.2L8.80003 12.8Z" fill="white"/>
</svg>
